<svg version="1.1" id="Layer_1" xmlns="http://www.w3.org/2000/svg" xmlns:xlink="http://www.w3.org/1999/xlink" x="0px" y="0px"
	 width="100%" viewBox="0 0 1080 1080" enable-background="new 0 0 1080 1080" xml:space="preserve">
<path fill="none" opacity="1.000000" stroke="none" 
	d="
M748.000000,1081.000000 
	C498.695374,1081.000000 249.890762,1081.000000 1.043071,1081.000000 
	C1.043071,721.070251 1.043071,361.140503 1.043071,1.105384 
	C360.888153,1.105384 720.776367,1.105384 1080.832275,1.105384 
	C1080.832275,360.999939 1080.832275,720.999939 1080.832275,1081.000000 
	C970.140076,1081.000000 859.320007,1081.000000 748.000000,1081.000000 
M250.498260,358.028839 
	C250.498260,358.028839 250.095444,357.946777 250.053528,357.017029 
	C250.053528,342.872040 250.053528,328.727081 250.053528,313.721252 
	C239.921921,312.168335 230.356873,310.702271 220.148376,309.137543 
	C219.667801,314.364746 218.982101,318.459747 218.965149,322.557526 
	C218.861008,347.723724 218.914459,372.890594 218.903564,398.057220 
	C218.870895,473.557098 218.825363,549.057007 218.803726,624.556885 
	C218.800003,637.558777 220.766113,639.876648 233.305161,642.220581 
	C243.607330,644.146423 253.929199,645.981689 264.192017,648.100708 
	C322.348633,660.108398 378.316956,678.228638 430.296326,707.548279 
	C433.698242,709.467163 437.790955,710.133911 441.505249,711.534424 
	C444.878082,712.806213 446.501862,711.609131 446.987854,707.656738 
	C435.637604,698.234985 424.224976,688.537964 412.536591,679.185486 
	C408.673035,676.093994 404.297028,673.471985 399.817230,671.348572 
	C365.699738,655.176941 331.521454,639.132812 297.309570,623.161560 
	C286.917694,618.310242 276.279480,613.984802 265.909210,609.089966 
	C259.263458,605.953125 256.354553,600.099609 256.028046,592.912292 
	C255.914688,590.417236 255.986923,587.913452 255.982239,585.413696 
	C255.846451,512.916992 255.718887,440.420197 255.550888,367.923553 
	C255.544022,364.956604 255.158249,361.990540 255.153046,358.101654 
	C255.067383,344.947906 255.045090,331.793030 254.809082,318.641968 
	C254.782135,317.141022 253.557983,315.661530 252.888947,314.172089 
	C252.259735,315.610779 251.102798,317.042480 251.083694,318.489227 
	C250.910049,331.641205 250.934891,344.795837 250.498260,358.028839 
M845.383728,313.946716 
	C845.383728,313.946716 844.929443,314.058502 844.203369,313.987427 
	C843.171570,315.560608 841.270203,317.122833 841.250183,318.708832 
	C841.126404,328.503082 841.527283,338.302277 841.569641,348.100586 
	C841.932190,431.930695 842.228516,515.761108 842.667664,599.590820 
	C842.690125,603.879944 841.397644,606.050415 837.224304,607.552002 
	C816.417358,615.038635 795.703979,622.788391 775.005310,630.572327 
	C740.770935,643.446472 710.017944,662.608887 680.111389,683.293823 
	C668.774109,691.135193 657.349182,698.849792 645.678345,706.817261 
	C646.983887,709.001404 648.145813,710.945374 649.540955,713.279419 
	C655.603821,710.645935 661.541992,708.457336 667.126099,705.581055 
	C727.552551,674.456299 791.619202,654.500488 858.462402,643.064514 
	C876.326111,640.008179 878.856873,637.155334 878.818054,618.870789 
	C878.615051,523.205933 878.432190,427.541107 878.210327,331.876343 
	C878.196838,326.045929 877.940674,320.214966 877.726074,314.386871 
	C877.667175,312.785736 877.349548,311.194092 877.061340,308.881195 
	C866.343262,310.610535 856.096863,312.263763 845.383728,313.946716 
M381.313751,205.983963 
	C377.899231,203.011124 374.484711,200.038284 371.070190,197.065445 
	C370.528351,197.421661 369.986511,197.777878 369.444672,198.134094 
	C369.250641,200.714340 368.890350,203.294357 368.887115,205.874832 
	C368.822968,256.834656 368.777405,307.794495 368.775482,358.754333 
	C368.773560,409.547638 368.841248,460.340942 368.824432,511.134247 
	C368.822754,516.258423 369.440674,521.060425 373.263031,525.548645 
	C375.935852,527.920227 378.600342,530.301270 381.282867,532.661804 
	C396.911560,546.414734 413.019165,559.664307 428.084869,574.008362 
	C469.026855,612.988892 504.440948,656.680481 536.267822,703.331787 
	C537.523865,705.172852 538.881104,706.944946 540.191223,708.749146 
	C540.733704,708.647095 541.276123,708.545044 541.818604,708.442932 
	C541.818604,701.020874 541.775574,693.598572 541.825684,686.176880 
	C542.112732,643.688293 542.302673,601.198364 542.836182,558.712830 
	C542.929321,551.291504 540.475830,545.445557 535.590881,540.265564 
	C534.219238,538.811096 532.777161,537.413757 531.504211,535.876831 
	C520.040222,522.035339 524.539368,505.240173 541.426819,498.788239 
	C550.540283,495.306396 558.096008,498.600189 564.735168,504.615692 
	C570.739746,510.056213 573.579529,517.034180 570.778564,524.890564 
	C568.913696,530.121338 565.791321,534.979614 562.757141,539.699524 
	C558.476440,546.358337 554.665771,553.000488 554.646790,561.292908 
	C554.542847,606.616150 554.272095,651.939209 554.233215,697.262451 
	C554.229004,702.202209 555.343811,707.142883 556.041626,712.929626 
	C557.196472,711.491882 557.643127,711.007019 558.010193,710.467957 
	C562.320740,704.137329 566.692444,697.846802 570.909668,691.454468 
	C609.942139,632.290405 656.675110,580.190308 713.028687,536.995422 
	C723.491638,528.975647 728.458862,519.211975 728.415344,505.824005 
	C728.102112,409.503784 728.178589,313.182281 728.068665,216.861282 
	C728.060974,210.110565 727.550598,203.360397 727.241882,195.828354 
	C653.218445,243.230972 593.237549,303.024963 548.543396,378.448761 
	C544.722046,372.394043 541.437500,366.997406 537.957825,361.729675 
	C534.379028,356.311798 530.604431,351.023376 526.924805,345.671967 
	C489.196960,290.802887 443.132294,244.428864 386.939026,208.398270 
	C385.450653,207.443939 383.555115,207.124619 381.313751,205.983963 
M804.919067,533.500000 
	C804.876404,447.847198 804.860229,362.194336 804.740417,276.541626 
	C804.730957,269.798584 804.000183,263.056488 803.556213,255.486649 
	C795.464600,257.494446 788.010559,259.045349 780.741638,261.215973 
	C769.076599,264.699371 765.266418,269.967468 765.000549,282.343628 
	C764.835999,290.005157 764.928284,297.672363 764.922424,305.337036 
	C764.883911,355.472626 764.826721,405.608215 764.825500,455.743805 
	C764.824951,477.739899 765.099670,499.737091 764.953247,521.731750 
	C764.841675,538.497803 757.525574,550.687622 741.474915,557.126160 
	C737.500549,558.720459 733.707275,560.970398 730.164917,563.405151 
	C701.985779,582.772949 677.356018,606.142883 655.139099,631.960815 
	C646.960083,641.465515 640.483032,652.481018 633.690491,663.102173 
	C631.842041,665.992493 631.669922,669.954895 630.728394,673.425232 
	C631.198120,673.627747 631.667908,673.830200 632.137634,674.032654 
	C633.524475,673.187561 634.937744,672.382507 636.293701,671.490479 
	C642.690979,667.282532 648.787598,662.519287 655.507446,658.916382 
	C690.571350,640.116272 725.755493,621.538879 760.981873,603.044006 
	C770.999878,597.784180 781.361511,593.182800 791.451294,588.054504 
	C800.586670,583.411377 805.231506,575.956177 805.024841,565.494141 
	C804.820862,555.166077 804.942688,544.831665 804.919067,533.500000 
M437.010345,656.485413 
	C442.306030,660.519836 447.883362,664.241150 452.816833,668.678284 
	C457.587097,672.968628 463.147919,671.922546 469.152374,672.172852 
	C460.930786,659.114868 452.657501,646.271118 443.110565,634.456482 
	C416.301453,601.279358 385.279755,572.834656 347.601685,552.164978 
	C344.155548,550.274414 340.830841,547.846863 338.099152,545.037292 
	C332.903748,539.693848 331.925720,532.767761 331.930420,525.581909 
	C331.979584,450.102112 332.011292,374.622314 331.958984,299.142578 
	C331.954498,292.668335 331.498260,286.177826 330.914093,279.725494 
	C330.391083,273.948639 328.569519,268.348267 323.790253,264.806274 
	C314.516296,257.933258 303.458557,257.943573 292.136292,257.015808 
	C292.136292,259.750427 292.132050,261.724731 292.136871,263.699036 
	C292.386047,365.326508 292.636414,466.954010 292.885376,568.581482 
	C292.912598,579.692932 296.040314,584.139099 306.414948,587.910889 
	C352.818329,604.781189 396.453430,626.938416 437.010345,656.485413 
M354.496552,823.040588 
	C357.627045,827.556030 360.708374,832.106995 363.926147,836.559326 
	C364.636810,837.542603 365.814362,838.841187 366.804932,838.865784 
	C374.505615,839.056763 382.213104,838.971252 390.890656,838.971252 
	C384.081940,829.011353 377.934845,820.019287 371.687683,810.880920 
	C381.884552,808.033447 384.193146,804.978455 384.208679,794.836853 
	C384.222198,786.005920 384.230255,777.174866 384.207550,768.343994 
	C384.179840,757.564697 379.864502,753.257812 369.023285,753.243835 
	C350.361694,753.219788 331.700043,753.237000 313.038422,753.236938 
	C311.438202,753.236938 309.838013,753.237000 308.260986,753.237000 
	C308.260986,782.191711 308.260986,810.433044 308.260986,838.698486 
	C315.158478,838.698486 321.730682,838.698486 328.839722,838.698486 
	C328.839722,829.162842 328.839722,819.920044 328.839722,810.790771 
	C338.963013,809.053650 347.913879,808.939148 352.405945,819.975708 
	C352.773834,820.879578 353.510864,821.633179 354.496552,823.040588 
M451.991455,756.761047 
	C451.991455,772.323303 451.991455,787.885498 451.991455,804.747070 
	C450.169495,802.237061 449.098358,800.850464 448.120819,799.400818 
	C438.535889,785.186707 428.995911,770.942200 419.346771,756.771912 
	C418.396790,755.376892 416.857452,753.494995 415.500946,753.417053 
	C409.254913,753.058044 402.976715,753.258789 396.573914,753.258789 
	C396.573914,782.151123 396.573914,810.375671 396.573914,838.748535 
	C403.462280,838.748535 410.040680,838.748535 417.047852,838.748535 
	C417.047852,821.958618 417.047852,805.418640 417.047852,787.650757 
	C418.727997,789.904602 419.722290,791.130554 420.601379,792.434265 
	C430.278931,806.786560 439.920166,821.163452 449.634369,835.490845 
	C450.519867,836.796814 451.797272,838.740417 452.970764,838.797913 
	C459.533020,839.119934 466.119293,838.952881 472.491455,838.952881 
	C472.491455,809.981812 472.491455,781.768555 472.491455,753.242249 
	C466.276917,753.242249 460.461548,753.130066 454.659485,753.357666 
	C453.740662,753.393677 452.881927,754.961670 451.991455,756.761047 
M209.685486,770.636597 
	C209.666977,757.278503 205.682892,753.236023 192.520248,753.233704 
	C177.360138,753.231018 162.199448,753.155457 147.040115,753.264954 
	C138.088181,753.329651 133.112747,758.380310 133.087311,767.273010 
	C133.032486,786.431213 133.041748,805.589722 133.085403,824.748047 
	C133.106674,834.080322 137.966019,838.973755 147.190155,838.996582 
	C162.849945,839.035278 178.509918,839.013000 194.169815,839.005493 
	C205.089920,839.000305 209.656921,834.480286 209.674362,823.578552 
	C209.702087,806.252747 209.683960,788.926880 209.685486,770.636597 
M772.270752,821.370239 
	C772.274963,835.315369 776.000183,839.006531 790.071350,839.006836 
	C804.730957,839.007080 819.390564,839.021179 834.050171,839.001831 
	C844.240417,838.988403 848.877991,834.292542 848.890198,823.952087 
	C848.912048,805.460999 848.911682,786.969910 848.892761,768.478821 
	C848.882080,757.990906 844.152100,753.263062 833.620789,753.242249 
	C818.294922,753.211975 802.968811,753.214478 787.642944,753.241455 
	C777.087708,753.260010 772.294434,757.985291 772.275146,768.428772 
	C772.243225,785.753662 772.269348,803.078735 772.270752,821.370239 
M971.500000,753.233276 
	C963.543701,753.233276 955.587402,753.233276 947.466797,753.233276 
	C947.466797,782.114380 947.466797,810.464355 947.466797,839.007019 
	C966.189270,839.007019 984.514404,839.025513 1002.839478,839.000732 
	C1016.077698,838.982849 1023.574219,831.572937 1023.658203,818.258057 
	C1023.751770,803.428040 1023.770691,788.596436 1023.655579,773.766724 
	C1023.555664,760.900391 1015.901123,753.354675 1002.994141,753.250793 
	C992.830078,753.168945 982.664734,753.233826 971.500000,753.233276 
M890.500122,753.237854 
	C884.838806,753.238586 879.176147,753.161438 873.516479,753.257996 
	C864.766785,753.407349 859.742676,758.131165 859.672424,766.830383 
	C859.514954,786.310730 859.520508,805.794006 859.674744,825.274414 
	C859.746887,834.387390 864.647400,838.975769 873.739136,838.994690 
	C889.724060,839.028015 905.709167,839.025391 921.694092,838.996155 
	C931.314575,838.978577 936.008972,834.241150 936.021301,824.548523 
	C936.045227,805.732910 936.046448,786.917236 936.023621,768.101624 
	C936.011353,757.932861 931.296204,753.282837 920.972351,753.245483 
	C911.148376,753.210022 901.324158,753.237915 890.500122,753.237854 
M696.468445,839.006592 
	C699.413025,839.006592 702.357544,839.006592 705.887695,839.006592 
	C705.887695,827.525024 705.887695,816.619995 705.887695,805.684509 
	C717.582947,805.684509 728.668396,805.684509 740.381592,805.684509 
	C740.381592,816.882568 740.381592,827.788208 740.381592,838.816956 
	C747.632629,838.816956 754.251831,838.816956 760.916016,838.816956 
	C760.916016,810.256531 760.916016,781.887756 760.916016,753.607300 
	C753.921326,753.607300 747.350586,753.607300 740.232178,753.607300 
	C740.232178,764.862549 740.232178,775.756958 740.232178,786.651306 
	C728.438904,786.651306 717.209595,786.651306 705.469421,786.651306 
	C705.469421,775.382568 705.469421,764.470581 705.469421,753.596313 
	C698.369324,753.596313 691.792786,753.596313 685.258789,753.596313 
	C685.258789,782.197937 685.258789,810.436218 685.258789,839.006592 
	C688.878174,839.006592 692.184204,839.006592 696.468445,839.006592 
M503.430817,830.975464 
	C503.686005,830.184998 504.047150,829.411682 504.178864,828.601135 
	C504.909851,824.103027 507.196960,822.300354 512.002197,822.796753 
	C517.110046,823.324402 522.315063,822.871887 527.476807,822.928284 
	C532.121704,822.979065 537.806274,821.554443 541.102234,823.719177 
	C544.101013,825.688904 544.504944,831.610046 546.049744,835.790466 
	C546.164856,836.101990 546.159241,836.549316 546.376526,836.716431 
	C547.421143,837.519409 548.502502,838.863464 549.608276,838.900635 
	C555.871460,839.111267 562.145447,839.002502 568.928650,839.002502 
	C559.595825,810.812378 550.497986,783.211304 541.200073,755.677734 
	C540.815979,754.540161 538.573242,753.379944 537.167908,753.344116 
	C528.680542,753.127930 520.179871,753.405457 511.694489,753.153137 
	C508.307983,753.052368 506.799011,754.039490 505.735504,757.371094 
	C499.621216,776.525208 493.223907,795.588806 486.935150,814.687256 
	C484.312836,822.651001 481.721558,830.624939 479.032745,838.849487 
	C486.619293,838.849487 493.589172,838.849487 500.742950,838.849487 
	C501.564301,836.421570 502.358429,834.074097 503.430817,830.975464 
M241.069778,792.500000 
	C241.069778,779.568237 241.069778,766.636475 241.069778,753.547302 
	C233.907730,753.547302 227.346664,753.547302 220.792679,753.547302 
	C220.569626,754.299988 220.312958,754.762573 220.312515,755.225464 
	C220.289383,778.873474 220.161499,802.522522 220.354660,826.168945 
	C220.420288,834.203979 225.737625,838.957825 233.868286,838.988586 
	C249.855591,839.049133 265.843292,839.017883 281.830841,839.003174 
	C292.315002,838.993469 296.884766,834.348389 296.892365,823.679688 
	C296.907715,802.029907 296.904022,780.380127 296.889130,758.730347 
	C296.887939,756.984253 296.740540,755.238281 296.664948,753.576904 
	C289.462219,753.576904 282.881012,753.576904 275.989990,753.576904 
	C275.989990,755.733032 275.989929,757.546997 275.990021,759.360901 
	C275.990753,778.179565 275.903625,796.998962 276.061798,815.816284 
	C276.096039,819.891052 274.793488,821.536499 270.626251,821.431641 
	C262.637543,821.230713 254.634735,821.196899 246.648529,821.442871 
	C242.152435,821.581421 240.871353,819.682251 241.005524,815.480774 
	C241.239319,808.160583 241.070099,800.827637 241.069778,792.500000 
M62.426640,836.172363 
	C65.528023,837.117126 68.609451,838.791626 71.734329,838.877075 
	C83.543053,839.200012 95.365891,839.018005 107.183426,839.004089 
	C117.816383,838.991516 122.093628,834.795715 122.105316,824.288391 
	C122.129761,802.317749 122.120743,780.347107 122.104134,758.376465 
	C122.102928,756.782166 121.929329,755.187988 121.834602,753.572083 
	C114.816887,753.572083 108.255234,753.572083 101.233246,753.572083 
	C101.233246,755.694580 101.233223,757.492554 101.233246,759.290527 
	C101.233536,778.098755 101.121872,796.908081 101.317047,815.714294 
	C101.362778,820.121094 99.878639,821.727295 95.542953,821.431274 
	C91.566742,821.159790 87.555267,821.287354 83.563606,821.396118 
	C80.206139,821.487610 78.683777,820.164368 78.867844,816.666687 
	C79.063980,812.939392 78.911987,809.193726 78.911987,805.537598 
	C71.473816,805.537598 64.894981,805.537598 57.993164,805.537598 
	C57.993164,812.343079 57.561527,818.854736 58.163242,825.269592 
	C58.497158,828.829285 60.556797,832.227112 62.426640,836.172363 
M595.752014,780.500000 
	C595.752014,771.564575 595.752014,762.629150 595.752014,753.532593 
	C588.515076,753.532593 581.945435,753.532593 575.182861,753.532593 
	C575.182861,782.067566 575.182861,810.300293 575.182861,838.676514 
	C598.800903,838.676514 622.170105,838.676514 645.498047,838.676514 
	C645.498047,832.797363 645.498047,827.257202 645.498047,821.275574 
	C628.847107,821.275574 612.590820,821.275574 595.751343,821.275574 
	C595.751343,807.717285 595.751343,794.608643 595.752014,780.500000 
z"/>
<path fill="#ED8938" opacity="1.000000" stroke="none" 
	d="
M381.849457,206.509155 
	C383.555115,207.124619 385.450653,207.443939 386.939026,208.398270 
	C443.132294,244.428864 489.196960,290.802887 526.924805,345.671967 
	C530.604431,351.023376 534.379028,356.311798 537.957825,361.729675 
	C541.437500,366.997406 544.722046,372.394043 548.543396,378.448761 
	C593.237549,303.024963 653.218445,243.230972 727.241882,195.828354 
	C727.550598,203.360397 728.060974,210.110565 728.068665,216.861282 
	C728.178589,313.182281 728.102112,409.503784 728.415344,505.824005 
	C728.458862,519.211975 723.491638,528.975647 713.028687,536.995422 
	C656.675110,580.190308 609.942139,632.290405 570.909668,691.454468 
	C566.692444,697.846802 562.320740,704.137329 558.010193,710.467957 
	C557.643127,711.007019 557.196472,711.491882 556.041626,712.929626 
	C555.343811,707.142883 554.229004,702.202209 554.233215,697.262451 
	C554.272095,651.939209 554.542847,606.616150 554.646790,561.292908 
	C554.665771,553.000488 558.476440,546.358337 562.757141,539.699524 
	C565.791321,534.979614 568.913696,530.121338 570.778564,524.890564 
	C573.579529,517.034180 570.739746,510.056213 564.735168,504.615692 
	C558.096008,498.600189 550.540283,495.306396 541.426819,498.788239 
	C524.539368,505.240173 520.040222,522.035339 531.504211,535.876831 
	C532.777161,537.413757 534.219238,538.811096 535.590881,540.265564 
	C540.475830,545.445557 542.929321,551.291504 542.836182,558.712830 
	C542.302673,601.198364 542.112732,643.688293 541.825684,686.176880 
	C541.775574,693.598572 541.818604,701.020874 541.818604,708.442932 
	C541.276123,708.545044 540.733704,708.647095 540.191223,708.749146 
	C538.881104,706.944946 537.523865,705.172852 536.267822,703.331787 
	C504.440948,656.680481 469.026855,612.988892 428.084869,574.008362 
	C413.019165,559.664307 396.911560,546.414734 381.282867,532.661804 
	C378.600342,530.301270 375.935852,527.920227 373.471130,525.041809 
	C373.784515,524.053772 373.889832,523.572510 374.001984,522.613281 
	C373.999359,503.812683 374.016113,485.489960 373.937744,467.167694 
	C373.930298,465.432465 373.325989,463.699829 373.000977,461.499451 
	C373.007355,403.342255 373.011566,345.651581 373.307404,287.669067 
	C373.726105,285.898743 373.961731,284.420380 373.963898,282.941681 
	C373.993896,262.630890 373.991669,242.320084 374.138306,221.679550 
	C376.802643,216.402954 379.326050,211.456055 381.849457,206.509155 
z"/>
<path fill="#75B0F2" opacity="1.000000" stroke="none" 
	d="
M804.920288,534.000000 
	C804.942688,544.831665 804.820862,555.166077 805.024841,565.494141 
	C805.231506,575.956177 800.586670,583.411377 791.451294,588.054504 
	C781.361511,593.182800 770.999878,597.784180 760.981873,603.044006 
	C725.755493,621.538879 690.571350,640.116272 655.507446,658.916382 
	C648.787598,662.519287 642.690979,667.282532 636.293701,671.490479 
	C634.937744,672.382507 633.524475,673.187561 632.137634,674.032654 
	C631.667908,673.830200 631.198120,673.627747 630.728394,673.425232 
	C631.669922,669.954895 631.842041,665.992493 633.690491,663.102173 
	C640.483032,652.481018 646.960083,641.465515 655.139099,631.960815 
	C677.356018,606.142883 701.985779,582.772949 730.164917,563.405151 
	C733.707275,560.970398 737.500549,558.720459 741.474915,557.126160 
	C757.525574,550.687622 764.841675,538.497803 764.953247,521.731750 
	C765.099670,499.737091 764.824951,477.739899 764.825500,455.743805 
	C764.826721,405.608215 764.883911,355.472626 764.922424,305.337036 
	C764.928284,297.672363 764.835999,290.005157 765.000549,282.343628 
	C765.266418,269.967468 769.076599,264.699371 780.741638,261.215973 
	C788.010559,259.045349 795.464600,257.494446 803.556213,255.486649 
	C804.000183,263.056488 804.730957,269.798584 804.740417,276.541626 
	C804.860229,362.194336 804.876404,447.847198 804.920288,534.000000 
z"/>
<path fill="#75B1F3" opacity="1.000000" stroke="none" 
	d="
M436.730469,656.261719 
	C396.453430,626.938416 352.818329,604.781189 306.414948,587.910889 
	C296.040314,584.139099 292.912598,579.692932 292.885376,568.581482 
	C292.636414,466.954010 292.386047,365.326508 292.136871,263.699036 
	C292.132050,261.724731 292.136292,259.750427 292.136292,257.015808 
	C303.458557,257.943573 314.516296,257.933258 323.790253,264.806274 
	C328.569519,268.348267 330.391083,273.948639 330.914093,279.725494 
	C331.498260,286.177826 331.954498,292.668335 331.958984,299.142578 
	C332.011292,374.622314 331.979584,450.102112 331.930420,525.581909 
	C331.925720,532.767761 332.903748,539.693848 338.099152,545.037292 
	C340.830841,547.846863 344.155548,550.274414 347.601685,552.164978 
	C385.279755,572.834656 416.301453,601.279358 443.110565,634.456482 
	C452.657501,646.271118 460.930786,659.114868 469.152374,672.172852 
	C463.147919,671.922546 457.587097,672.968628 452.816833,668.678284 
	C447.883362,664.241150 442.306030,660.519836 436.730469,656.261719 
z"/>
<path fill="#36629C" opacity="1.000000" stroke="none" 
	d="
M845.850464,313.916992 
	C856.096863,312.263763 866.343262,310.610535 877.061340,308.881195 
	C877.349548,311.194092 877.667175,312.785736 877.726074,314.386871 
	C877.940674,320.214966 878.196838,326.045929 878.210327,331.876343 
	C878.432190,427.541107 878.615051,523.205933 878.818054,618.870789 
	C878.856873,637.155334 876.326111,640.008179 858.462402,643.064514 
	C791.619202,654.500488 727.552551,674.456299 667.126099,705.581055 
	C661.541992,708.457336 655.603821,710.645935 649.540955,713.279419 
	C648.145813,710.945374 646.983887,709.001404 645.678345,706.817261 
	C657.349182,698.849792 668.774109,691.135193 680.111389,683.293823 
	C710.017944,662.608887 740.770935,643.446472 775.005310,630.572327 
	C795.703979,622.788391 816.417358,615.038635 837.224304,607.552002 
	C841.397644,606.050415 842.690125,603.879944 842.667664,599.590820 
	C842.228516,515.761108 841.932190,431.930695 841.569641,348.100586 
	C841.527283,338.302277 841.126404,328.503082 841.250183,318.708832 
	C841.270203,317.122833 843.171570,315.560608 844.514648,314.485107 
	C844.968811,341.272095 845.111633,367.561432 845.165405,394.325348 
	C845.109314,412.486816 845.142395,430.173737 845.120850,448.335114 
	C845.066284,497.852783 845.066284,546.895996 845.066284,595.939148 
	C845.798706,595.373779 845.989746,594.773621 845.989502,594.173584 
	C845.970276,545.420410 845.936279,496.667206 845.914917,447.453796 
	C845.884827,429.287659 845.843140,411.581787 845.826599,393.416016 
	C845.851318,366.609711 845.850891,340.263367 845.850464,313.916992 
z"/>
<path fill="#37649D" opacity="1.000000" stroke="none" 
	d="
M254.949005,359.024048 
	C255.158249,361.990540 255.544022,364.956604 255.550888,367.923553 
	C255.718887,440.420197 255.846451,512.916992 255.982239,585.413696 
	C255.986923,587.913452 255.914688,590.417236 256.028046,592.912292 
	C256.354553,600.099609 259.263458,605.953125 265.909210,609.089966 
	C276.279480,613.984802 286.917694,618.310242 297.309570,623.161560 
	C331.521454,639.132812 365.699738,655.176941 399.817230,671.348572 
	C404.297028,673.471985 408.673035,676.093994 412.536591,679.185486 
	C424.224976,688.537964 435.637604,698.234985 446.987854,707.656738 
	C446.501862,711.609131 444.878082,712.806213 441.505249,711.534424 
	C437.790955,710.133911 433.698242,709.467163 430.296326,707.548279 
	C378.316956,678.228638 322.348633,660.108398 264.192017,648.100708 
	C253.929199,645.981689 243.607330,644.146423 233.305161,642.220581 
	C220.766113,639.876648 218.800003,637.558777 218.803726,624.556885 
	C218.825363,549.057007 218.870895,473.557098 218.903564,398.057220 
	C218.914459,372.890594 218.861008,347.723724 218.965149,322.557526 
	C218.982101,318.459747 219.667801,314.364746 220.148376,309.137543 
	C230.356873,310.702271 239.921921,312.168335 250.053528,313.721252 
	C250.053528,328.727081 250.053528,342.872040 249.983124,357.946716 
	C249.999237,375.216339 250.085754,391.556244 250.091705,408.368408 
	C250.049042,423.194092 250.086945,437.547546 250.081558,452.374023 
	C250.035126,472.140839 250.012527,491.434692 250.069275,510.728271 
	C250.073395,512.128235 250.654266,513.526550 250.979935,515.398804 
	C250.995056,543.033569 250.995667,570.195129 251.004089,597.356750 
	C251.004501,598.687378 251.016434,600.023499 251.143326,601.345520 
	C251.183762,601.767029 251.594894,602.165344 251.877899,602.543213 
	C251.958313,602.650574 252.182343,602.673157 252.345078,602.689697 
	C252.501282,602.705566 252.663406,602.663086 253.563812,602.568115 
	C253.701157,600.719849 253.981842,598.701111 253.982361,596.682312 
	C254.002014,519.530029 253.988541,442.377716 254.033417,365.225464 
	C254.034622,363.158142 254.630463,361.091187 254.949005,359.024048 
z"/>
<path fill="#1E88EA" opacity="1.000000" stroke="none" 
	d="
M354.286438,822.748596 
	C353.510864,821.633179 352.773834,820.879578 352.405945,819.975708 
	C347.913879,808.939148 338.963013,809.053650 328.839722,810.790771 
	C328.839722,819.920044 328.839722,829.162842 328.839722,838.698486 
	C321.730682,838.698486 315.158478,838.698486 308.260986,838.698486 
	C308.260986,810.433044 308.260986,782.191711 308.260986,753.237000 
	C309.838013,753.237000 311.438202,753.236938 313.038422,753.236938 
	C331.700043,753.237000 350.361694,753.219788 369.023285,753.243835 
	C379.864502,753.257812 384.179840,757.564697 384.207550,768.343994 
	C384.230255,777.174866 384.222198,786.005920 384.208679,794.836853 
	C384.193146,804.978455 381.884552,808.033447 371.687683,810.880920 
	C377.934845,820.019287 384.081940,829.011353 390.890656,838.971252 
	C382.213104,838.971252 374.505615,839.056763 366.804932,838.865784 
	C365.814362,838.841187 364.636810,837.542603 363.926147,836.559326 
	C360.708374,832.106995 357.627045,827.556030 354.286438,822.748596 
M343.502686,770.940186 
	C338.732574,770.940186 333.962463,770.940186 329.155212,770.940186 
	C329.155212,778.519775 329.155212,785.527588 329.155212,792.837891 
	C339.513733,792.837891 349.463898,792.989990 359.398193,792.660828 
	C360.761200,792.615601 363.027710,790.282715 363.183411,788.827881 
	C363.675568,784.228760 363.341797,779.543579 363.371216,774.891907 
	C363.390350,771.866699 361.794617,770.857849 358.954712,770.916687 
	C354.138763,771.016479 349.319153,770.941528 343.502686,770.940186 
z"/>
<path fill="#1F88EA" opacity="1.000000" stroke="none" 
	d="
M451.993439,756.291199 
	C452.881927,754.961670 453.740662,753.393677 454.659485,753.357666 
	C460.461548,753.130066 466.276917,753.242249 472.491455,753.242249 
	C472.491455,781.768555 472.491455,809.981812 472.491455,838.952881 
	C466.119293,838.952881 459.533020,839.119934 452.970764,838.797913 
	C451.797272,838.740417 450.519867,836.796814 449.634369,835.490845 
	C439.920166,821.163452 430.278931,806.786560 420.601379,792.434265 
	C419.722290,791.130554 418.727997,789.904602 417.047852,787.650757 
	C417.047852,805.418640 417.047852,821.958618 417.047852,838.748535 
	C410.040680,838.748535 403.462280,838.748535 396.573914,838.748535 
	C396.573914,810.375671 396.573914,782.151123 396.573914,753.258789 
	C402.976715,753.258789 409.254913,753.058044 415.500946,753.417053 
	C416.857452,753.494995 418.396790,755.376892 419.346771,756.771912 
	C428.995911,770.942200 438.535889,785.186707 448.120819,799.400818 
	C449.098358,800.850464 450.169495,802.237061 451.991455,804.747070 
	C451.991455,787.885498 451.991455,772.323303 451.993439,756.291199 
z"/>
<path fill="#1F88EA" opacity="1.000000" stroke="none" 
	d="
M209.685364,771.118774 
	C209.683960,788.926880 209.702087,806.252747 209.674362,823.578552 
	C209.656921,834.480286 205.089920,839.000305 194.169815,839.005493 
	C178.509918,839.013000 162.849945,839.035278 147.190155,838.996582 
	C137.966019,838.973755 133.106674,834.080322 133.085403,824.748047 
	C133.041748,805.589722 133.032486,786.431213 133.087311,767.273010 
	C133.112747,758.380310 138.088181,753.329651 147.040115,753.264954 
	C162.199448,753.155457 177.360138,753.231018 192.520248,753.233704 
	C205.682892,753.236023 209.666977,757.278503 209.685364,771.118774 
M186.078613,821.237732 
	C186.993179,819.697266 188.678085,818.168579 188.701691,816.614563 
	C188.909180,802.956360 188.795425,789.293579 188.837845,775.632324 
	C188.848282,772.270935 187.393600,770.857483 183.983002,770.907349 
	C175.654678,771.029175 167.319580,771.093933 158.994858,770.881653 
	C154.954193,770.778625 153.838135,772.471313 153.879501,776.245667 
	C154.025528,789.572266 154.050812,802.903015 153.864960,816.228638 
	C153.809021,820.238525 155.384018,821.492432 159.164825,821.423645 
	C167.825333,821.265808 176.490433,821.359192 186.078613,821.237732 
z"/>
<path fill="#1F88EA" opacity="1.000000" stroke="none" 
	d="
M772.270874,820.886963 
	C772.269348,803.078735 772.243225,785.753662 772.275146,768.428772 
	C772.294434,757.985291 777.087708,753.260010 787.642944,753.241455 
	C802.968811,753.214478 818.294922,753.211975 833.620789,753.242249 
	C844.152100,753.263062 848.882080,757.990906 848.892761,768.478821 
	C848.911682,786.969910 848.912048,805.460999 848.890198,823.952087 
	C848.877991,834.292542 844.240417,838.988403 834.050171,839.001831 
	C819.390564,839.021179 804.730957,839.007080 790.071350,839.006836 
	C776.000183,839.006531 772.274963,835.315369 772.270874,820.886963 
M793.071167,779.660950 
	C793.070740,791.820679 793.173828,803.981873 793.010010,816.139404 
	C792.957275,820.050842 794.431274,821.497009 798.281677,821.422852 
	C806.440674,821.265625 814.606689,821.271179 822.765930,821.420715 
	C826.571350,821.490479 828.110413,820.144714 828.058960,816.177307 
	C827.886169,802.853821 827.905701,789.525757 828.044556,776.201477 
	C828.084778,772.339294 826.689880,770.797424 822.782959,770.894531 
	C815.458313,771.076538 808.125916,770.944092 800.796753,770.946106 
	C793.093018,770.948303 793.093018,770.950256 793.071167,779.660950 
z"/>
<path fill="#1F88EA" opacity="1.000000" stroke="none" 
	d="
M972.000000,753.233398 
	C982.664734,753.233826 992.830078,753.168945 1002.994141,753.250793 
	C1015.901123,753.354675 1023.555664,760.900391 1023.655579,773.766724 
	C1023.770691,788.596436 1023.751770,803.428040 1023.658203,818.258057 
	C1023.574219,831.572937 1016.077698,838.982849 1002.839478,839.000732 
	C984.514404,839.025513 966.189270,839.007019 947.466797,839.007019 
	C947.466797,810.464355 947.466797,782.114380 947.466797,753.233276 
	C955.587402,753.233276 963.543701,753.233276 972.000000,753.233398 
M967.961914,772.729370 
	C967.961914,788.829712 967.961914,804.930115 967.961914,821.347290 
	C977.732849,821.347290 986.874084,821.414978 996.013611,821.318359 
	C1000.490723,821.270996 1002.738892,818.588257 1002.776733,814.305115 
	C1002.882507,802.312622 1002.903442,790.317627 1002.777344,778.325562 
	C1002.725159,773.364868 1000.261169,771.053528 995.287537,770.975220 
	C988.626160,770.870361 981.960693,770.873596 975.299438,770.982483 
	C972.894165,771.021790 970.496033,771.500427 967.961914,772.729370 
z"/>
<path fill="#1E88EA" opacity="1.000000" stroke="none" 
	d="
M891.000122,753.237915 
	C901.324158,753.237915 911.148376,753.210022 920.972351,753.245483 
	C931.296204,753.282837 936.011353,757.932861 936.023621,768.101624 
	C936.046448,786.917236 936.045227,805.732910 936.021301,824.548523 
	C936.008972,834.241150 931.314575,838.978577 921.694092,838.996155 
	C905.709167,839.025391 889.724060,839.028015 873.739136,838.994690 
	C864.647400,838.975769 859.746887,834.387390 859.674744,825.274414 
	C859.520508,805.794006 859.514954,786.310730 859.672424,766.830383 
	C859.742676,758.131165 864.766785,753.407349 873.516479,753.257996 
	C879.176147,753.161438 884.838806,753.238586 891.000122,753.237915 
M915.142883,800.499451 
	C915.140869,792.340088 915.036560,784.178833 915.184570,776.022156 
	C915.248352,772.508484 914.204163,770.806763 910.373657,770.886536 
	C901.884888,771.063293 893.389160,771.011841 884.898010,770.907898 
	C881.714111,770.868896 880.276978,772.248352 880.277283,775.340576 
	C880.278503,789.161560 880.292725,802.982605 880.260132,816.803467 
	C880.252930,819.846375 881.449402,821.427979 884.690369,821.400574 
	C893.348572,821.327271 902.008728,821.310547 910.666443,821.410339 
	C914.201477,821.451050 915.293640,819.796936 915.183289,816.484314 
	C915.017090,811.494324 915.141785,806.494690 915.142883,800.499451 
z"/>
<path fill="#1F88EA" opacity="1.000000" stroke="none" 
	d="
M695.979370,839.006592 
	C692.184204,839.006592 688.878174,839.006592 685.258789,839.006592 
	C685.258789,810.436218 685.258789,782.197937 685.258789,753.596313 
	C691.792786,753.596313 698.369324,753.596313 705.469421,753.596313 
	C705.469421,764.470581 705.469421,775.382568 705.469421,786.651306 
	C717.209595,786.651306 728.438904,786.651306 740.232178,786.651306 
	C740.232178,775.756958 740.232178,764.862549 740.232178,753.607300 
	C747.350586,753.607300 753.921326,753.607300 760.916016,753.607300 
	C760.916016,781.887756 760.916016,810.256531 760.916016,838.816956 
	C754.251831,838.816956 747.632629,838.816956 740.381592,838.816956 
	C740.381592,827.788208 740.381592,816.882568 740.381592,805.684509 
	C728.668396,805.684509 717.582947,805.684509 705.887695,805.684509 
	C705.887695,816.619995 705.887695,827.525024 705.887695,839.006592 
	C702.357544,839.006592 699.413025,839.006592 695.979370,839.006592 
z"/>
<path fill="#1E88EA" opacity="1.000000" stroke="none" 
	d="
M503.291687,831.351074 
	C502.358429,834.074097 501.564301,836.421570 500.742950,838.849487 
	C493.589172,838.849487 486.619293,838.849487 479.032745,838.849487 
	C481.721558,830.624939 484.312836,822.651001 486.935150,814.687256 
	C493.223907,795.588806 499.621216,776.525208 505.735504,757.371094 
	C506.799011,754.039490 508.307983,753.052368 511.694489,753.153137 
	C520.179871,753.405457 528.680542,753.127930 537.167908,753.344116 
	C538.573242,753.379944 540.815979,754.540161 541.200073,755.677734 
	C550.497986,783.211304 559.595825,810.812378 568.928650,839.002502 
	C562.145447,839.002502 555.871460,839.111267 549.608276,838.900635 
	C548.502502,838.863464 547.421143,837.519409 546.376526,836.716431 
	C546.159241,836.549316 546.164856,836.101990 546.049744,835.790466 
	C544.504944,831.610046 544.101013,825.688904 541.102234,823.719177 
	C537.806274,821.554443 532.121704,822.979065 527.476807,822.928284 
	C522.315063,822.871887 517.110046,823.324402 512.002197,822.796753 
	C507.196960,822.300354 504.909851,824.103027 504.178864,828.601135 
	C504.047150,829.411682 503.686005,830.184998 503.291687,831.351074 
M532.104553,794.334656 
	C529.482910,786.661133 526.861267,778.987549 523.793274,770.007385 
	C519.635010,782.529053 515.994568,793.491394 512.207886,804.894226 
	C520.271912,804.894226 527.619568,804.894226 535.637939,804.894226 
	C534.436584,801.304932 533.396362,798.197144 532.104553,794.334656 
z"/>
<path fill="#1F88EA" opacity="1.000000" stroke="none" 
	d="
M241.069794,793.000000 
	C241.070099,800.827637 241.239319,808.160583 241.005524,815.480774 
	C240.871353,819.682251 242.152435,821.581421 246.648529,821.442871 
	C254.634735,821.196899 262.637543,821.230713 270.626251,821.431641 
	C274.793488,821.536499 276.096039,819.891052 276.061798,815.816284 
	C275.903625,796.998962 275.990753,778.179565 275.990021,759.360901 
	C275.989929,757.546997 275.989990,755.733032 275.989990,753.576904 
	C282.881012,753.576904 289.462219,753.576904 296.664948,753.576904 
	C296.740540,755.238281 296.887939,756.984253 296.889130,758.730347 
	C296.904022,780.380127 296.907715,802.029907 296.892365,823.679688 
	C296.884766,834.348389 292.315002,838.993469 281.830841,839.003174 
	C265.843292,839.017883 249.855591,839.049133 233.868286,838.988586 
	C225.737625,838.957825 220.420288,834.203979 220.354660,826.168945 
	C220.161499,802.522522 220.289383,778.873474 220.312515,755.225464 
	C220.312958,754.762573 220.569626,754.299988 220.792679,753.547302 
	C227.346664,753.547302 233.907730,753.547302 241.069778,753.547302 
	C241.069778,766.636475 241.069778,779.568237 241.069794,793.000000 
z"/>
<path fill="#1F88EA" opacity="1.000000" stroke="none" 
	d="
M62.132626,835.935181 
	C60.556797,832.227112 58.497158,828.829285 58.163242,825.269592 
	C57.561527,818.854736 57.993164,812.343079 57.993164,805.537598 
	C64.894981,805.537598 71.473816,805.537598 78.911987,805.537598 
	C78.911987,809.193726 79.063980,812.939392 78.867844,816.666687 
	C78.683777,820.164368 80.206139,821.487610 83.563606,821.396118 
	C87.555267,821.287354 91.566742,821.159790 95.542953,821.431274 
	C99.878639,821.727295 101.362778,820.121094 101.317047,815.714294 
	C101.121872,796.908081 101.233536,778.098755 101.233246,759.290527 
	C101.233223,757.492554 101.233246,755.694580 101.233246,753.572083 
	C108.255234,753.572083 114.816887,753.572083 121.834602,753.572083 
	C121.929329,755.187988 122.102928,756.782166 122.104134,758.376465 
	C122.120743,780.347107 122.129761,802.317749 122.105316,824.288391 
	C122.093628,834.795715 117.816383,838.991516 107.183426,839.004089 
	C95.365891,839.018005 83.543053,839.200012 71.734329,838.877075 
	C68.609451,838.791626 65.528023,837.117126 62.132626,835.935181 
z"/>
<path fill="#2089EA" opacity="1.000000" stroke="none" 
	d="
M595.751709,781.000000 
	C595.751343,794.608643 595.751343,807.717285 595.751343,821.275574 
	C612.590820,821.275574 628.847107,821.275574 645.498047,821.275574 
	C645.498047,827.257202 645.498047,832.797363 645.498047,838.676514 
	C622.170105,838.676514 598.800903,838.676514 575.182861,838.676514 
	C575.182861,810.300293 575.182861,782.067566 575.182861,753.532593 
	C581.945435,753.532593 588.515076,753.532593 595.752014,753.532593 
	C595.752014,762.629150 595.752014,771.564575 595.751709,781.000000 
z"/>
<path fill="#D58A42" opacity="1.000000" stroke="none" 
	d="
M373.015808,287.960876 
	C373.011566,345.651581 373.007355,403.342255 373.001526,461.972046 
	C372.993042,481.242554 372.958984,499.574066 373.023712,517.905212 
	C373.029877,519.635071 373.656586,521.362671 373.995178,523.091309 
	C373.889832,523.572510 373.784515,524.053772 373.493408,524.699524 
	C369.440674,521.060425 368.822754,516.258423 368.824432,511.134247 
	C368.841248,460.340942 368.773560,409.547638 368.775482,358.754333 
	C368.777405,307.794495 368.822968,256.834656 368.887115,205.874832 
	C368.890350,203.294357 369.250641,200.714340 369.444672,198.134094 
	C369.986511,197.777878 370.528351,197.421661 371.070190,197.065445 
	C374.484711,200.038284 377.899231,203.011124 381.581604,206.246552 
	C379.326050,211.456055 376.802643,216.402954 373.835693,221.967499 
	C373.259766,224.395401 373.014099,226.205521 373.012238,228.015915 
	C372.991608,247.997543 373.008820,267.979218 373.015808,287.960876 
z"/>
<path fill="#2F598E" opacity="1.000000" stroke="none" 
	d="
M255.051025,358.562866 
	C254.630463,361.091187 254.034622,363.158142 254.033417,365.225464 
	C253.988541,442.377716 254.002014,519.530029 253.982361,596.682312 
	C253.981842,598.701111 253.701157,600.719849 253.563812,602.568115 
	C252.663406,602.663086 252.501282,602.705566 252.345078,602.689697 
	C252.182343,602.673157 251.958313,602.650574 251.877899,602.543213 
	C251.594894,602.165344 251.183762,601.767029 251.143326,601.345520 
	C251.016434,600.023499 251.004501,598.687378 251.004089,597.356750 
	C250.995667,570.195129 250.995056,543.033569 250.978531,514.938782 
	C250.927643,493.304321 250.891113,472.603058 250.878128,451.442657 
	C250.875580,436.623840 250.849518,422.264099 250.850250,407.442688 
	C250.885254,390.637207 250.893448,374.293427 250.901657,357.949677 
	C250.934891,344.795837 250.910049,331.641205 251.083694,318.489227 
	C251.102798,317.042480 252.259735,315.610779 252.888947,314.172089 
	C253.557983,315.661530 254.782135,317.141022 254.809082,318.641968 
	C255.045090,331.793030 255.067383,344.947906 255.051025,358.562866 
z"/>
<path fill="#B2C3D9" opacity="1.000000" stroke="none" 
	d="
M845.254517,393.850769 
	C845.111633,367.561432 844.968811,341.272095 844.877686,314.520630 
	C844.929443,314.058502 845.383728,313.946716 845.617065,313.931854 
	C845.850891,340.263367 845.851318,366.609711 845.689819,393.420410 
	C845.527832,393.884705 845.254517,393.850769 845.254517,393.850769 
z"/>
<path fill="#B2C3D9" opacity="1.000000" stroke="none" 
	d="
M250.699951,357.989258 
	C250.893448,374.293427 250.885254,390.637207 250.687531,407.452881 
	C250.497986,407.924835 250.172272,407.896149 250.172272,407.896149 
	C250.085754,391.556244 249.999237,375.216339 250.004089,358.411621 
	C250.095444,357.946777 250.498260,358.028839 250.699951,357.989258 
z"/>
<path fill="#EB9D5C" opacity="1.000000" stroke="none" 
	d="
M373.307404,287.669067 
	C373.008820,267.979218 372.991608,247.997543 373.012238,228.015915 
	C373.014099,226.205521 373.259766,224.395401 373.694794,222.297211 
	C373.991669,242.320084 373.993896,262.630890 373.963898,282.941681 
	C373.961731,284.420380 373.726105,285.898743 373.307404,287.669067 
z"/>
<path fill="#EB9D5C" opacity="1.000000" stroke="none" 
	d="
M374.002014,522.613281 
	C373.656586,521.362671 373.029877,519.635071 373.023712,517.905212 
	C372.958984,499.574066 372.993042,481.242554 372.999329,462.438538 
	C373.325989,463.699829 373.930298,465.432465 373.937744,467.167694 
	C374.016113,485.489960 373.999359,503.812683 374.002014,522.613281 
z"/>
<path fill="#5B7BA2" opacity="1.000000" stroke="none" 
	d="
M845.903320,447.914032 
	C845.936279,496.667206 845.970276,545.420410 845.989502,594.173584 
	C845.989746,594.773621 845.798706,595.373779 845.066284,595.939148 
	C845.066284,546.895996 845.066284,497.852783 845.300781,448.368286 
	C845.535278,447.926941 845.903259,447.914032 845.903320,447.914032 
z"/>
<path fill="#819AB9" opacity="1.000000" stroke="none" 
	d="
M845.914917,447.453796 
	C845.903259,447.914032 845.535278,447.926941 845.355347,447.893799 
	C845.142395,430.173737 845.109314,412.486816 845.165405,394.325348 
	C845.254517,393.850769 845.527832,393.884705 845.664673,393.880310 
	C845.843140,411.581787 845.884827,429.287659 845.914917,447.453796 
z"/>
<path fill="#5B7BA2" opacity="1.000000" stroke="none" 
	d="
M250.854599,451.901764 
	C250.891113,472.603058 250.927643,493.304321 250.965561,514.465576 
	C250.654266,513.526550 250.073395,512.128235 250.069275,510.728271 
	C250.012527,491.434692 250.035126,472.140839 250.263397,452.388580 
	C250.488525,451.930084 250.854599,451.901764 250.854599,451.901764 
z"/>
<path fill="#819AB9" opacity="1.000000" stroke="none" 
	d="
M250.878128,451.442657 
	C250.854599,451.901764 250.488525,451.930084 250.306686,451.915527 
	C250.086945,437.547546 250.049042,423.194092 250.091705,408.368408 
	C250.172272,407.896149 250.497986,407.924835 250.660721,407.914612 
	C250.849518,422.264099 250.875580,436.623840 250.878128,451.442657 
z"/>
<path fill="#FCFEFF" opacity="1.000000" stroke="none" 
	d="
M344.001892,770.940186 
	C349.319153,770.941528 354.138763,771.016479 358.954712,770.916687 
	C361.794617,770.857849 363.390350,771.866699 363.371216,774.891907 
	C363.341797,779.543579 363.675568,784.228760 363.183411,788.827881 
	C363.027710,790.282715 360.761200,792.615601 359.398193,792.660828 
	C349.463898,792.989990 339.513733,792.837891 329.155212,792.837891 
	C329.155212,785.527588 329.155212,778.519775 329.155212,770.940186 
	C333.962463,770.940186 338.732574,770.940186 344.001892,770.940186 
z"/>
<path fill="#FDFEFF" opacity="1.000000" stroke="none" 
	d="
M185.616135,821.294128 
	C176.490433,821.359192 167.825333,821.265808 159.164825,821.423645 
	C155.384018,821.492432 153.809021,820.238525 153.864960,816.228638 
	C154.050812,802.903015 154.025528,789.572266 153.879501,776.245667 
	C153.838135,772.471313 154.954193,770.778625 158.994858,770.881653 
	C167.319580,771.093933 175.654678,771.029175 183.983002,770.907349 
	C187.393600,770.857483 188.848282,772.270935 188.837845,775.632324 
	C188.795425,789.293579 188.909180,802.956360 188.701691,816.614563 
	C188.678085,818.168579 186.993179,819.697266 185.616135,821.294128 
z"/>
<path fill="#FEFEFF" opacity="1.000000" stroke="none" 
	d="
M793.071289,779.185669 
	C793.093018,770.950256 793.093018,770.948303 800.796753,770.946106 
	C808.125916,770.944092 815.458313,771.076538 822.782959,770.894531 
	C826.689880,770.797424 828.084778,772.339294 828.044556,776.201477 
	C827.905701,789.525757 827.886169,802.853821 828.058960,816.177307 
	C828.110413,820.144714 826.571350,821.490479 822.765930,821.420715 
	C814.606689,821.271179 806.440674,821.265625 798.281677,821.422852 
	C794.431274,821.497009 792.957275,820.050842 793.010010,816.139404 
	C793.173828,803.981873 793.070740,791.820679 793.071289,779.185669 
z"/>
<path fill="#FDFEFF" opacity="1.000000" stroke="none" 
	d="
M968.028320,772.253967 
	C970.496033,771.500427 972.894165,771.021790 975.299438,770.982483 
	C981.960693,770.873596 988.626160,770.870361 995.287537,770.975220 
	C1000.261169,771.053528 1002.725159,773.364868 1002.777344,778.325562 
	C1002.903442,790.317627 1002.882507,802.312622 1002.776733,814.305115 
	C1002.738892,818.588257 1000.490723,821.270996 996.013611,821.318359 
	C986.874084,821.414978 977.732849,821.347290 967.961914,821.347290 
	C967.961914,804.930115 967.961914,788.829712 968.028320,772.253967 
z"/>
<path fill="#FCFEFF" opacity="1.000000" stroke="none" 
	d="
M915.142944,800.999268 
	C915.141785,806.494690 915.017090,811.494324 915.183289,816.484314 
	C915.293640,819.796936 914.201477,821.451050 910.666443,821.410339 
	C902.008728,821.310547 893.348572,821.327271 884.690369,821.400574 
	C881.449402,821.427979 880.252930,819.846375 880.260132,816.803467 
	C880.292725,802.982605 880.278503,789.161560 880.277283,775.340576 
	C880.276978,772.248352 881.714111,770.868896 884.898010,770.907898 
	C893.389160,771.011841 901.884888,771.063293 910.373657,770.886536 
	C914.204163,770.806763 915.248352,772.508484 915.184570,776.022156 
	C915.036560,784.178833 915.140869,792.340088 915.142944,800.999268 
z"/>
<path fill="#FAFCFE" opacity="1.000000" stroke="none" 
	d="
M532.230347,794.711975 
	C533.396362,798.197144 534.436584,801.304932 535.637939,804.894226 
	C527.619568,804.894226 520.271912,804.894226 512.207886,804.894226 
	C515.994568,793.491394 519.635010,782.529053 523.793274,770.007385 
	C526.861267,778.987549 529.482910,786.661133 532.230347,794.711975 
z"/>
</svg>