<?xml version="1.0" encoding="UTF-8" standalone="no" ?>
<!DOCTYPE svg PUBLIC "-//W3C//DTD SVG 1.1//EN" "http://www.w3.org/Graphics/SVG/1.1/DTD/svg11.dtd">
<svg xmlns="http://www.w3.org/2000/svg" xmlns:xlink="http://www.w3.org/1999/xlink" version="1.1" width="1080" height="1080" viewBox="0 0 1080 1080" xml:space="preserve">
<desc>Created with Fabric.js 5.2.4</desc>
<defs>
</defs>
<g transform="matrix(1 0 0 1 540 540)" id="417ddc85-b8af-43bf-8864-6c232c448c2f"  >
</g>
<g transform="matrix(1 0 0 1 540 540)" id="77dab668-9bb1-4e06-b3ef-d9a7cde44037"  >
<rect style="stroke: none; stroke-width: 1; stroke-dasharray: none; stroke-linecap: butt; stroke-dashoffset: 0; stroke-linejoin: miter; stroke-miterlimit: 4; fill: rgb(255,255,255); fill-rule: nonzero; opacity: 1; visibility: hidden;" vector-effect="non-scaling-stroke"  x="-540" y="-540" rx="0" ry="0" width="1080" height="1080" />
</g>
<g transform="matrix(1.59 0 0 1.59 541.93 655.73)"  >
<path style="stroke: none; stroke-width: 1; stroke-dasharray: none; stroke-linecap: butt; stroke-dashoffset: 0; stroke-linejoin: miter; stroke-miterlimit: 4; fill: rgb(237,137,56); fill-rule: nonzero; opacity: 1;" vector-effect="non-scaling-stroke"  transform=" translate(-550.71, -454.38)" d="M 381.849457 206.509155 C 383.555115 207.124619 385.450653 207.443939 386.939026 208.39827 C 443.132294 244.428864 489.19696 290.802887 526.924805 345.671967 C 530.604431 351.023376 534.379028 356.311798 537.957825 361.729675 C 541.4375 366.997406 544.722046 372.394043 548.543396 378.448761 C 593.237549 303.024963 653.218445 243.230972 727.241882 195.828354 C 727.550598 203.360397 728.060974 210.110565 728.068665 216.861282 C 728.178589 313.182281 728.102112 409.503784 728.415344 505.824005 C 728.458862 519.211975 723.491638 528.975647 713.028687 536.995422 C 656.67511 580.190308 609.942139 632.290405 570.909668 691.454468 C 566.692444 697.846802 562.32074 704.137329 558.010193 710.467957 C 557.643127 711.007019 557.196472 711.491882 556.041626 712.929626 C 555.343811 707.142883 554.229004 702.202209 554.233215 697.262451 C 554.272095 651.939209 554.542847 606.61615 554.64679 561.292908 C 554.665771 553.000488 558.47644 546.358337 562.757141 539.699524 C 565.791321 534.979614 568.913696 530.121338 570.778564 524.890564 C 573.579529 517.03418 570.739746 510.056213 564.735168 504.615692 C 558.096008 498.600189 550.540283 495.306396 541.426819 498.788239 C 524.539368 505.240173 520.040222 522.035339 531.504211 535.876831 C 532.777161 537.413757 534.219238 538.811096 535.590881 540.265564 C 540.47583 545.445557 542.929321 551.291504 542.836182 558.71283 C 542.302673 601.198364 542.112732 643.688293 541.825684 686.17688 C 541.775574 693.598572 541.818604 701.020874 541.818604 708.442932 C 541.276123 708.545044 540.733704 708.647095 540.191223 708.749146 C 538.881104 706.944946 537.523865 705.172852 536.267822 703.331787 C 504.440948 656.680481 469.026855 612.988892 428.084869 574.008362 C 413.019165 559.664307 396.91156 546.414734 381.282867 532.661804 C 378.600342 530.30127 375.935852 527.920227 373.47113 525.041809 C 373.784515 524.053772 373.889832 523.57251 374.001984 522.613281 C 373.999359 503.812683 374.016113 485.48996 373.937744 467.167694 C 373.930298 465.432465 373.325989 463.699829 373.000977 461.499451 C 373.007355 403.342255 373.011566 345.651581 373.307404 287.669067 C 373.726105 285.898743 373.961731 284.42038 373.963898 282.941681 C 373.993896 262.63089 373.991669 242.320084 374.138306 221.67955 C 376.802643 216.402954 379.32605 211.456055 381.849457 206.509155 z" stroke-linecap="round" />
</g>
<g transform="matrix(1.59 0 0 1.59 807.76 672.23)"  >
<path style="stroke: none; stroke-width: 1; stroke-dasharray: none; stroke-linecap: butt; stroke-dashoffset: 0; stroke-linejoin: miter; stroke-miterlimit: 4; fill: rgb(117,176,242); fill-rule: nonzero; opacity: 1;" vector-effect="non-scaling-stroke"  transform=" translate(-717.88, -464.76)" d="M 804.920288 534 C 804.942688 544.831665 804.820862 555.166077 805.024841 565.494141 C 805.231506 575.956177 800.58667 583.411377 791.451294 588.054504 C 781.361511 593.1828 770.999878 597.78418 760.981873 603.044006 C 725.755493 621.538879 690.57135 640.116272 655.507446 658.916382 C 648.787598 662.519287 642.690979 667.282532 636.293701 671.490479 C 634.937744 672.382507 633.524475 673.187561 632.137634 674.032654 C 631.667908 673.8302 631.19812 673.627747 630.728394 673.425232 C 631.669922 669.954895 631.842041 665.992493 633.690491 663.102173 C 640.483032 652.481018 646.960083 641.465515 655.139099 631.960815 C 677.356018 606.142883 701.985779 582.772949 730.164917 563.405151 C 733.707275 560.970398 737.500549 558.720459 741.474915 557.12616 C 757.525574 550.687622 764.841675 538.497803 764.953247 521.73175 C 765.09967 499.737091 764.824951 477.739899 764.8255 455.743805 C 764.826721 405.608215 764.883911 355.472626 764.922424 305.337036 C 764.928284 297.672363 764.835999 290.005157 765.000549 282.343628 C 765.266418 269.967468 769.076599 264.699371 780.741638 261.215973 C 788.010559 259.045349 795.4646 257.494446 803.556213 255.486649 C 804.000183 263.056488 804.730957 269.798584 804.740417 276.541626 C 804.860229 362.194336 804.876404 447.847198 804.920288 534 z" stroke-linecap="round" />
</g>
<g transform="matrix(1.59 0 0 1.59 271.52 671.96)"  >
<path style="stroke: none; stroke-width: 1; stroke-dasharray: none; stroke-linecap: butt; stroke-dashoffset: 0; stroke-linejoin: miter; stroke-miterlimit: 4; fill: rgb(117,177,243); fill-rule: nonzero; opacity: 1;" vector-effect="non-scaling-stroke"  transform=" translate(-380.64, -464.59)" d="M 436.730469 656.261719 C 396.45343 626.938416 352.818329 604.781189 306.414948 587.910889 C 296.040314 584.139099 292.912598 579.692932 292.885376 568.581482 C 292.636414 466.95401 292.386047 365.326508 292.136871 263.699036 C 292.13205 261.724731 292.136292 259.750427 292.136292 257.015808 C 303.458557 257.943573 314.516296 257.933258 323.790253 264.806274 C 328.569519 268.348267 330.391083 273.948639 330.914093 279.725494 C 331.49826 286.177826 331.954498 292.668335 331.958984 299.142578 C 332.011292 374.622314 331.979584 450.102112 331.93042 525.581909 C 331.92572 532.767761 332.903748 539.693848 338.099152 545.037292 C 340.830841 547.846863 344.155548 550.274414 347.601685 552.164978 C 385.279755 572.834656 416.301453 601.279358 443.110565 634.456482 C 452.657501 646.271118 460.930786 659.114868 469.152374 672.172852 C 463.147919 671.922546 457.587097 672.968628 452.816833 668.678284 C 447.883362 664.24115 442.30603 660.519836 436.730469 656.261719 z" stroke-linecap="round" />
</g>
<g transform="matrix(1.59 0 0 1.59 878.31 745.89)"  >
<path style="stroke: none; stroke-width: 1; stroke-dasharray: none; stroke-linecap: butt; stroke-dashoffset: 0; stroke-linejoin: miter; stroke-miterlimit: 4; fill: rgb(54,98,156); fill-rule: nonzero; opacity: 1;" vector-effect="non-scaling-stroke"  transform=" translate(-762.25, -511.08)" d="M 845.850464 313.916992 C 856.096863 312.263763 866.343262 310.610535 877.06134 308.881195 C 877.349548 311.194092 877.667175 312.785736 877.726074 314.386871 C 877.940674 320.214966 878.196838 326.045929 878.210327 331.876343 C 878.43219 427.541107 878.615051 523.205933 878.818054 618.870789 C 878.856873 637.155334 876.326111 640.008179 858.462402 643.064514 C 791.619202 654.500488 727.552551 674.456299 667.126099 705.581055 C 661.541992 708.457336 655.603821 710.645935 649.540955 713.279419 C 648.145813 710.945374 646.983887 709.001404 645.678345 706.817261 C 657.349182 698.849792 668.774109 691.135193 680.111389 683.293823 C 710.017944 662.608887 740.770935 643.446472 775.00531 630.572327 C 795.703979 622.788391 816.417358 615.038635 837.224304 607.552002 C 841.397644 606.050415 842.690125 603.879944 842.667664 599.59082 C 842.228516 515.761108 841.93219 431.930695 841.569641 348.100586 C 841.527283 338.302277 841.126404 328.503082 841.250183 318.708832 C 841.270203 317.122833 843.17157 315.560608 844.514648 314.485107 C 844.968811 341.272095 845.111633 367.561432 845.165405 394.325348 C 845.109314 412.486816 845.142395 430.173737 845.12085 448.335114 C 845.066284 497.852783 845.066284 546.895996 845.066284 595.939148 C 845.798706 595.373779 845.989746 594.773621 845.989502 594.173584 C 845.970276 545.42041 845.936279 496.667206 845.914917 447.453796 C 845.884827 429.287659 845.84314 411.581787 845.826599 393.416016 C 845.851318 366.609711 845.850891 340.263367 845.850464 313.916992 z" stroke-linecap="round" />
</g>
<g transform="matrix(1.59 0 0 1.59 195.6 745.08)"  >
<path style="stroke: none; stroke-width: 1; stroke-dasharray: none; stroke-linecap: butt; stroke-dashoffset: 0; stroke-linejoin: miter; stroke-miterlimit: 4; fill: rgb(55,100,157); fill-rule: nonzero; opacity: 1;" vector-effect="non-scaling-stroke"  transform=" translate(-332.9, -510.58)" d="M 254.949005 359.024048 C 255.158249 361.99054 255.544022 364.956604 255.550888 367.923553 C 255.718887 440.420197 255.846451 512.916992 255.982239 585.413696 C 255.986923 587.913452 255.914688 590.417236 256.028046 592.912292 C 256.354553 600.099609 259.263458 605.953125 265.90921 609.089966 C 276.27948 613.984802 286.917694 618.310242 297.30957 623.16156 C 331.521454 639.132812 365.699738 655.176941 399.81723 671.348572 C 404.297028 673.471985 408.673035 676.093994 412.536591 679.185486 C 424.224976 688.537964 435.637604 698.234985 446.987854 707.656738 C 446.501862 711.609131 444.878082 712.806213 441.505249 711.534424 C 437.790955 710.133911 433.698242 709.467163 430.296326 707.548279 C 378.316956 678.228638 322.348633 660.108398 264.192017 648.100708 C 253.929199 645.981689 243.60733 644.146423 233.305161 642.220581 C 220.766113 639.876648 218.800003 637.558777 218.803726 624.556885 C 218.825363 549.057007 218.870895 473.557098 218.903564 398.05722 C 218.914459 372.890594 218.861008 347.723724 218.965149 322.557526 C 218.982101 318.459747 219.667801 314.364746 220.148376 309.137543 C 230.356873 310.702271 239.921921 312.168335 250.053528 313.721252 C 250.053528 328.727081 250.053528 342.87204 249.983124 357.946716 C 249.999237 375.216339 250.085754 391.556244 250.091705 408.368408 C 250.049042 423.194092 250.086945 437.547546 250.081558 452.374023 C 250.035126 472.140839 250.012527 491.434692 250.069275 510.728271 C 250.073395 512.128235 250.654266 513.52655 250.979935 515.398804 C 250.995056 543.033569 250.995667 570.195129 251.004089 597.35675 C 251.004501 598.687378 251.016434 600.023499 251.143326 601.34552 C 251.183762 601.767029 251.594894 602.165344 251.877899 602.543213 C 251.958313 602.650574 252.182343 602.673157 252.345078 602.689697 C 252.501282 602.705566 252.663406 602.663086 253.563812 602.568115 C 253.701157 600.719849 253.981842 598.701111 253.982361 596.682312 C 254.002014 519.530029 253.988541 442.377716 254.033417 365.225464 C 254.034622 363.158142 254.630463 361.091187 254.949005 359.024048 z" stroke-linecap="round" />
</g>
<g transform="matrix(1.59 0 0 1.59 262.83 507.05)"  >
<path style="stroke: none; stroke-width: 1; stroke-dasharray: none; stroke-linecap: butt; stroke-dashoffset: 0; stroke-linejoin: miter; stroke-miterlimit: 4; fill: rgb(213,138,66); fill-rule: nonzero; opacity: 1;" vector-effect="non-scaling-stroke"  transform=" translate(-375.18, -360.88)" d="M 373.015808 287.960876 C 373.011566 345.651581 373.007355 403.342255 373.001526 461.972046 C 372.993042 481.242554 372.958984 499.574066 373.023712 517.905212 C 373.029877 519.635071 373.656586 521.362671 373.995178 523.091309 C 373.889832 523.57251 373.784515 524.053772 373.493408 524.699524 C 369.440674 521.060425 368.822754 516.258423 368.824432 511.134247 C 368.841248 460.340942 368.77356 409.547638 368.775482 358.754333 C 368.777405 307.794495 368.822968 256.834656 368.887115 205.874832 C 368.89035 203.294357 369.250641 200.71434 369.444672 198.134094 C 369.986511 197.777878 370.528351 197.421661 371.07019 197.065445 C 374.484711 200.038284 377.899231 203.011124 381.581604 206.246552 C 379.32605 211.456055 376.802643 216.402954 373.835693 221.967499 C 373.259766 224.395401 373.014099 226.205521 373.012238 228.015915 C 372.991608 247.997543 373.00882 267.979218 373.015808 287.960876 z" stroke-linecap="round" />
</g>
<g transform="matrix(1.59 0 0 1.59 68.47 662.17)"  >
<path style="stroke: none; stroke-width: 1; stroke-dasharray: none; stroke-linecap: butt; stroke-dashoffset: 0; stroke-linejoin: miter; stroke-miterlimit: 4; fill: rgb(47,89,142); fill-rule: nonzero; opacity: 1;" vector-effect="non-scaling-stroke"  transform=" translate(-252.95, -458.43)" d="M 255.051025 358.562866 C 254.630463 361.091187 254.034622 363.158142 254.033417 365.225464 C 253.988541 442.377716 254.002014 519.530029 253.982361 596.682312 C 253.981842 598.701111 253.701157 600.719849 253.563812 602.568115 C 252.663406 602.663086 252.501282 602.705566 252.345078 602.689697 C 252.182343 602.673157 251.958313 602.650574 251.877899 602.543213 C 251.594894 602.165344 251.183762 601.767029 251.143326 601.34552 C 251.016434 600.023499 251.004501 598.687378 251.004089 597.35675 C 250.995667 570.195129 250.995056 543.033569 250.978531 514.938782 C 250.927643 493.304321 250.891113 472.603058 250.878128 451.442657 C 250.87558 436.62384 250.849518 422.264099 250.85025 407.442688 C 250.885254 390.637207 250.893448 374.293427 250.901657 357.949677 C 250.934891 344.795837 250.910049 331.641205 251.083694 318.489227 C 251.102798 317.04248 252.259735 315.610779 252.888947 314.172089 C 253.557983 315.66153 254.782135 317.141022 254.809082 318.641968 C 255.04509 331.79303 255.067383 344.947906 255.051025 358.562866 z" stroke-linecap="round" />
</g>
<g transform="matrix(1.59 0 0 1.59 1010.43 495.94)"  >
<path style="stroke: none; stroke-width: 1; stroke-dasharray: none; stroke-linecap: butt; stroke-dashoffset: 0; stroke-linejoin: miter; stroke-miterlimit: 4; fill: rgb(178,195,217); fill-rule: nonzero; opacity: 1;" vector-effect="non-scaling-stroke"  transform=" translate(-845.34, -353.89)" d="M 845.254517 393.850769 C 845.111633 367.561432 844.968811 341.272095 844.877686 314.52063 C 844.929443 314.058502 845.383728 313.946716 845.617065 313.931854 C 845.850891 340.263367 845.851318 366.609711 845.689819 393.42041 C 845.527832 393.884705 845.254517 393.850769 845.254517 393.850769 z" stroke-linecap="round" />
</g>
<g transform="matrix(1.59 0 0 1.59 64.46 542.14)"  >
<path style="stroke: none; stroke-width: 1; stroke-dasharray: none; stroke-linecap: butt; stroke-dashoffset: 0; stroke-linejoin: miter; stroke-miterlimit: 4; fill: rgb(178,195,217); fill-rule: nonzero; opacity: 1;" vector-effect="non-scaling-stroke"  transform=" translate(-250.42, -382.94)" d="M 250.699951 357.989258 C 250.893448 374.293427 250.885254 390.637207 250.687531 407.452881 C 250.497986 407.924835 250.172272 407.896149 250.172272 407.896149 C 250.085754 391.556244 249.999237 375.216339 250.004089 358.411621 C 250.095444 357.946777 250.49826 358.028839 250.699951 357.989258 z" stroke-linecap="round" />
</g>
<g transform="matrix(1.59 0 0 1.59 260.15 338.66)"  >
<path style="stroke: none; stroke-width: 1; stroke-dasharray: none; stroke-linecap: butt; stroke-dashoffset: 0; stroke-linejoin: miter; stroke-miterlimit: 4; fill: rgb(235,157,92); fill-rule: nonzero; opacity: 1;" vector-effect="non-scaling-stroke"  transform=" translate(-373.49, -254.98)" d="M 373.307404 287.669067 C 373.00882 267.979218 372.991608 247.997543 373.012238 228.015915 C 373.014099 226.205521 373.259766 224.395401 373.694794 222.297211 C 373.991669 242.320084 373.993896 262.63089 373.963898 282.941681 C 373.961731 284.42038 373.726105 285.898743 373.307404 287.669067 z" stroke-linecap="round" />
</g>
<g transform="matrix(1.59 0 0 1.59 260.15 716.39)"  >
<path style="stroke: none; stroke-width: 1; stroke-dasharray: none; stroke-linecap: butt; stroke-dashoffset: 0; stroke-linejoin: miter; stroke-miterlimit: 4; fill: rgb(235,157,92); fill-rule: nonzero; opacity: 1;" vector-effect="non-scaling-stroke"  transform=" translate(-373.49, -492.53)" d="M 374.002014 522.613281 C 373.656586 521.362671 373.029877 519.635071 373.023712 517.905212 C 372.958984 499.574066 372.993042 481.242554 372.999329 462.438538 C 373.325989 463.699829 373.930298 465.432465 373.937744 467.167694 C 374.016113 485.48996 373.999359 503.812683 374.002014 522.613281 z" stroke-linecap="round" />
</g>
<g transform="matrix(1.59 0 0 1.59 1010.73 763.13)"  >
<path style="stroke: none; stroke-width: 1; stroke-dasharray: none; stroke-linecap: butt; stroke-dashoffset: 0; stroke-linejoin: miter; stroke-miterlimit: 4; fill: rgb(91,123,162); fill-rule: nonzero; opacity: 1;" vector-effect="non-scaling-stroke"  transform=" translate(-845.53, -521.93)" d="M 845.90332 447.914032 C 845.936279 496.667206 845.970276 545.42041 845.989502 594.173584 C 845.989746 594.773621 845.798706 595.373779 845.066284 595.939148 C 845.066284 546.895996 845.066284 497.852783 845.300781 448.368286 C 845.535278 447.926941 845.903259 447.914032 845.90332 447.914032 z" stroke-linecap="round" />
</g>
<g transform="matrix(1.59 0 0 1.59 1010.73 602.48)"  >
<path style="stroke: none; stroke-width: 1; stroke-dasharray: none; stroke-linecap: butt; stroke-dashoffset: 0; stroke-linejoin: miter; stroke-miterlimit: 4; fill: rgb(129,154,185); fill-rule: nonzero; opacity: 1;" vector-effect="non-scaling-stroke"  transform=" translate(-845.53, -420.89)" d="M 845.914917 447.453796 C 845.903259 447.914032 845.535278 447.926941 845.355347 447.893799 C 845.142395 430.173737 845.109314 412.486816 845.165405 394.325348 C 845.254517 393.850769 845.527832 393.884705 845.664673 393.88031 C 845.84314 411.581787 845.884827 429.287659 845.914917 447.453796 z" stroke-linecap="round" />
</g>
<g transform="matrix(1.59 0 0 1.59 64.59 701.53)"  >
<path style="stroke: none; stroke-width: 1; stroke-dasharray: none; stroke-linecap: butt; stroke-dashoffset: 0; stroke-linejoin: miter; stroke-miterlimit: 4; fill: rgb(91,123,162); fill-rule: nonzero; opacity: 1;" vector-effect="non-scaling-stroke"  transform=" translate(-250.5, -483.18)" d="M 250.854599 451.901764 C 250.891113 472.603058 250.927643 493.304321 250.965561 514.465576 C 250.654266 513.52655 250.073395 512.128235 250.069275 510.728271 C 250.012527 491.434692 250.035126 472.140839 250.263397 452.38858 C 250.488525 451.930084 250.854599 451.901764 250.854599 451.901764 z" stroke-linecap="round" />
</g>
<g transform="matrix(1.59 0 0 1.59 64.54 616.82)"  >
<path style="stroke: none; stroke-width: 1; stroke-dasharray: none; stroke-linecap: butt; stroke-dashoffset: 0; stroke-linejoin: miter; stroke-miterlimit: 4; fill: rgb(129,154,185); fill-rule: nonzero; opacity: 1;" vector-effect="non-scaling-stroke"  transform=" translate(-250.48, -429.92)" d="M 250.878128 451.442657 C 250.854599 451.901764 250.488525 451.930084 250.306686 451.915527 C 250.086945 437.547546 250.049042 423.194092 250.091705 408.368408 C 250.172272 407.896149 250.497986 407.924835 250.660721 407.914612 C 250.849518 422.264099 250.87558 436.62384 250.878128 451.442657 z" stroke-linecap="round" />
</g>
</svg>